<?xml version="1.0" encoding="utf-8"?>
<!-- Generator: Adobe Illustrator 15.1.0, SVG Export Plug-In . SVG Version: 6.00 Build 0)  -->
<!DOCTYPE svg PUBLIC "-//W3C//DTD SVG 1.1//EN" "http://www.w3.org/Graphics/SVG/1.1/DTD/svg11.dtd">
<svg version="1.1" id="Layer_2" xmlns="http://www.w3.org/2000/svg" xmlns:xlink="http://www.w3.org/1999/xlink" x="0px" y="0px"
	 width="1000.001px" height="1000px" viewBox="0 0 1000.001 1000" enable-background="new 0 0 1000.001 1000" xml:space="preserve">
<g>
	<g>
		<path d="M595.296,494.819c0-128.62-68.639-191.14-209.838-191.14H249.276v392.64h136.182c63.59,0,115.039-18.431,152.918-54.771
			c18.852-18.08,33.191-39.5,42.611-63.68C590.478,553.499,595.296,525.559,595.296,494.819z M524.237,455.129l-87.059,150.8
			c-3.621,6.27-9.262,9.859-15.471,9.859c-6.221,0-11.859-3.59-15.48-9.859l-87.061-150.8c-3.619-6.27-3.91-12.96-0.809-18.34
			c3.109-5.38,9.039-8.46,16.279-8.46h174.129c7.24,0,13.18,3.08,16.281,8.47C528.157,442.18,527.856,448.859,524.237,455.129z"/>
		<path d="M635.925,630.926V303.679h-92.945v15.303c6.195,4.311,12.035,8.945,17.475,13.922
			c39.701,36.323,59.832,90.801,59.832,161.919c0,68.21-21.738,123.642-64.607,164.759c-4.098,3.933-8.332,7.674-12.699,11.233
			v25.507h245.746v-65.396H635.925z"/>
	</g>
	<path d="M500.001,117.629c51.635,0,101.707,10.105,148.826,30.034c45.527,19.257,86.424,46.832,121.551,81.96
		c35.129,35.127,62.703,76.023,81.961,121.552c19.928,47.118,30.033,97.19,30.033,148.825c0,51.635-10.105,101.707-30.033,148.825
		c-19.258,45.528-46.832,86.425-81.961,121.552c-35.127,35.128-76.023,62.703-121.551,81.96
		c-47.119,19.929-97.191,30.034-148.826,30.034s-101.707-10.105-148.826-30.034c-45.527-19.257-86.424-46.832-121.551-81.96
		c-35.129-35.127-62.703-76.023-81.961-121.552c-19.93-47.118-30.033-97.19-30.033-148.825c0-51.635,10.104-101.707,30.033-148.825
		c19.258-45.528,46.832-86.424,81.961-121.552c35.127-35.128,76.023-62.703,121.551-81.96
		C398.294,127.734,448.366,117.629,500.001,117.629 M500.001,82.629C269.493,82.629,82.63,269.492,82.63,500
		s186.863,417.371,417.371,417.371S917.372,730.508,917.372,500S730.509,82.629,500.001,82.629L500.001,82.629z"/>
</g>
</svg>
