<?xml version="1.0" encoding="utf-8"?>
<!-- Generator: Adobe Illustrator 15.1.0, SVG Export Plug-In . SVG Version: 6.00 Build 0)  -->
<!DOCTYPE svg PUBLIC "-//W3C//DTD SVG 1.1//EN" "http://www.w3.org/Graphics/SVG/1.1/DTD/svg11.dtd">
<svg version="1.1" id="Layer_2" xmlns="http://www.w3.org/2000/svg" xmlns:xlink="http://www.w3.org/1999/xlink" x="0px" y="0px"
	 width="1000px" height="1000px" viewBox="0 0 1000 1000" enable-background="new 0 0 1000 1000" xml:space="preserve">
<g>
	<g>
		<linearGradient id="SVGID_1_" gradientUnits="userSpaceOnUse" x1="267.8809" y1="611.4932" x2="124.8081" y2="397.4658">
			<stop  offset="0" style="stop-color:#BE1E2D"/>
			<stop  offset="1" style="stop-color:#FD2725"/>
		</linearGradient>
		<circle fill="url(#SVGID_1_)" cx="193.35" cy="500" r="121.371"/>
		<g>
			<g>
				<path fill="#FFFFFF" d="M227.452,498.493c0-37.402-19.96-55.582-61.021-55.582H126.83V557.09h39.602
					c18.491,0,33.453-5.359,44.469-15.927c5.48-5.258,9.651-11.487,12.391-18.519C226.051,515.558,227.452,507.433,227.452,498.493z
					 M206.789,486.952l-25.317,43.853c-1.053,1.823-2.693,2.866-4.499,2.866c-1.809,0-3.448-1.043-4.502-2.866l-25.316-43.853
					c-1.053-1.823-1.137-3.769-0.235-5.334c0.904-1.563,2.628-2.459,4.733-2.459h50.638c2.104,0,3.832,0.896,4.733,2.462
					C207.928,483.187,207.841,485.129,206.789,486.952z"/>
				<path fill="#FFFFFF" d="M239.267,538.073V442.91h-27.028v4.45c1.802,1.254,3.5,2.602,5.081,4.049
					c11.545,10.563,17.399,26.404,17.399,47.085c0,19.836-6.321,35.955-18.788,47.912c-1.191,1.144-2.423,2.231-3.692,3.267v7.418
					h71.463v-19.018H239.267z"/>
			</g>
		</g>
	</g>
	<g>
		<path fill="#FD2725" d="M409.444,469.302l-27.592,69.598c-4.921,12.42-11.835,18.63-20.738,18.63c-2.502,0-4.59-0.255-6.27-0.764
			v-8.611c2.071,0.705,3.965,1.056,5.684,1.056c4.842,0,8.475-2.89,10.896-8.67l4.803-11.366l-23.433-59.872h10.661l16.229,46.165
			c0.195,0.586,0.605,2.109,1.23,4.569h0.352c0.193-0.938,0.586-2.422,1.17-4.452l17.051-46.282H409.444z"/>
		<path fill="#FD2725" d="M444.828,530.697c-8.866,0-15.944-2.802-21.235-8.406c-5.292-5.604-7.939-13.034-7.939-22.291
			c0-10.076,2.756-17.945,8.261-23.608c5.507-5.663,12.948-8.494,22.321-8.494c8.941,0,15.924,2.753,20.942,8.261
			c5.019,5.505,7.528,13.142,7.528,22.905c0,9.568-2.705,17.231-8.113,22.994C461.182,527.816,453.928,530.697,444.828,530.697z
			 M445.532,475.982c-6.172,0-11.053,2.1-14.646,6.297c-3.595,4.198-5.391,9.987-5.391,17.369c0,7.108,1.816,12.713,5.449,16.813
			c3.63,4.101,8.494,6.151,14.587,6.151c6.21,0,10.984-2.01,14.324-6.034c3.338-4.022,5.008-9.743,5.008-17.164
			c0-7.5-1.67-13.28-5.008-17.34C456.517,478.013,451.742,475.982,445.532,475.982z"/>
		<path fill="#FD2725" d="M538.563,529.291h-9.609v-9.489h-0.234c-3.982,7.264-10.154,10.896-18.512,10.896
			c-14.295,0-21.443-8.514-21.443-25.541v-35.854h9.55v34.331c0,12.653,4.843,18.98,14.53,18.98c4.686,0,8.543-1.729,11.57-5.184
			c3.025-3.457,4.539-7.977,4.539-13.563v-34.565h9.609V529.291z"/>
		<path fill="#FD2725" d="M585.778,528.706c-2.264,1.249-5.252,1.875-8.961,1.875c-10.508,0-15.76-5.859-15.76-17.576v-35.501
			h-10.311v-8.202h10.311v-14.646l9.607-3.104v17.749h15.113v8.202h-15.113v33.804c0,4.022,0.682,6.892,2.051,8.611
			c1.367,1.72,3.633,2.577,6.795,2.577c2.422,0,4.51-0.664,6.268-1.992V528.706z"/>
		<path fill="#FD2725" d="M647.116,529.291h-9.607v-9.489h-0.234c-3.984,7.264-10.156,10.896-18.514,10.896
			c-14.293,0-21.439-8.514-21.439-25.541v-35.854h9.547v34.331c0,12.653,4.844,18.98,14.529,18.98c4.688,0,8.543-1.729,11.57-5.184
			c3.027-3.457,4.541-7.977,4.541-13.563v-34.565h9.607V529.291z"/>
		<path fill="#FD2725" d="M676.349,520.621h-0.234v8.67h-9.607v-88.813h9.607v39.368h0.234c4.727-7.966,11.639-11.949,20.738-11.949
			c7.693,0,13.719,2.686,18.074,8.056s6.531,12.565,6.531,21.587c0,10.038-2.441,18.073-7.324,24.107
			c-4.881,6.032-11.559,9.05-20.033,9.05C686.405,530.697,680.411,527.34,676.349,520.621z M676.114,496.426v8.377
			c0,4.961,1.613,9.17,4.834,12.627c3.223,3.455,7.313,5.184,12.273,5.184c5.82,0,10.377-2.227,13.68-6.678
			c3.299-4.452,4.949-10.642,4.949-18.571c0-6.678-1.543-11.911-4.627-15.701c-3.086-3.788-7.264-5.681-12.537-5.681
			c-5.586,0-10.076,1.942-13.473,5.827C677.815,485.696,676.114,490.569,676.114,496.426z"/>
		<path fill="#FD2725" d="M785.257,501.699h-42.357c0.154,6.678,1.953,11.834,5.391,15.465c3.438,3.633,8.16,5.449,14.178,5.449
			c6.754,0,12.965-2.227,18.629-6.678v9.021c-5.273,3.829-12.244,5.741-20.914,5.741c-8.477,0-15.137-2.723-19.977-8.172
			c-4.844-5.449-7.266-13.113-7.266-22.994c0-9.333,2.646-16.938,7.938-22.817c5.291-5.877,11.863-8.816,19.715-8.816
			c7.85,0,13.922,2.539,18.219,7.614c4.295,5.078,6.445,12.127,6.445,21.15V501.699z M775.413,493.556
			c-0.039-5.546-1.377-9.86-4.012-12.946c-2.637-3.086-6.299-4.627-10.984-4.627c-4.531,0-8.377,1.62-11.541,4.861
			s-5.117,7.479-5.859,12.712H775.413z"/>
		<path fill="#FD2725" d="M830.479,499.648h-31.984v-7.558h31.984V499.648z"/>
		<path fill="#FD2725" d="M898.964,529.291h-9.607v-10.193h-0.234c-4.453,7.733-11.326,11.6-20.621,11.6
			c-7.539,0-13.563-2.685-18.072-8.055s-6.768-12.684-6.768-21.94c0-9.919,2.5-17.866,7.5-23.842
			c4.998-5.977,11.658-8.963,19.977-8.963c8.24,0,14.236,3.241,17.984,9.724h0.234v-37.143h9.607V529.291z M889.356,502.167v-8.845
			c0-4.842-1.602-8.942-4.805-12.303c-3.203-3.358-7.262-5.037-12.186-5.037c-5.857,0-10.465,2.146-13.824,6.443
			s-5.039,10.232-5.039,17.809c0,6.914,1.611,12.372,4.836,16.374c3.221,4.004,7.545,6.005,12.975,6.005
			c5.35,0,9.693-1.934,13.033-5.801C887.688,512.946,889.356,508.064,889.356,502.167z"/>
		<path fill="#FD2725" d="M928.021,529.291h-9.607v-88.813h9.607V529.291z"/>
	</g>
</g>
</svg>
