<?xml version="1.0" encoding="utf-8"?>
<!-- Generator: Adobe Illustrator 15.1.0, SVG Export Plug-In . SVG Version: 6.00 Build 0)  -->
<!DOCTYPE svg PUBLIC "-//W3C//DTD SVG 1.1//EN" "http://www.w3.org/Graphics/SVG/1.1/DTD/svg11.dtd">
<svg version="1.1" id="Layer_2" xmlns="http://www.w3.org/2000/svg" xmlns:xlink="http://www.w3.org/1999/xlink" x="0px" y="0px"
	 width="1000px" height="1000px" viewBox="0 0 1000 1000" enable-background="new 0 0 1000 1000" xml:space="preserve">
<g>
	<g>
		<circle cx="193.351" cy="500" r="121.372"/>
		<g>
			<linearGradient id="SVGID_1_" gradientUnits="userSpaceOnUse" x1="248.4326" y1="609.082" x2="121.6436" y2="443.9071">
				<stop  offset="0" style="stop-color:#BE1E2D"/>
				<stop  offset="1" style="stop-color:#FD2725"/>
			</linearGradient>
			<path fill="url(#SVGID_1_)" d="M227.453,498.493c0-37.402-19.96-55.583-61.021-55.583h-39.602v114.18h39.602
				c18.491,0,33.453-5.359,44.469-15.927c5.48-5.258,9.651-11.487,12.391-18.519C226.051,515.558,227.453,507.433,227.453,498.493z
				 M206.789,486.952l-25.317,43.853c-1.053,1.823-2.692,2.867-4.498,2.867c-1.809,0-3.449-1.044-4.502-2.867l-25.316-43.853
				c-1.053-1.823-1.137-3.769-0.236-5.334c0.905-1.563,2.629-2.459,4.734-2.459h50.637c2.105,0,3.833,0.896,4.734,2.462
				C207.928,483.187,207.841,485.129,206.789,486.952z"/>
			<linearGradient id="SVGID_2_" gradientUnits="userSpaceOnUse" x1="286.8486" y1="579.5938" x2="160.0596" y2="414.4188">
				<stop  offset="0" style="stop-color:#BE1E2D"/>
				<stop  offset="1" style="stop-color:#FD2725"/>
			</linearGradient>
			<path fill="url(#SVGID_2_)" d="M239.267,538.073V442.91h-27.028v4.45c1.802,1.254,3.5,2.602,5.082,4.049
				c11.545,10.563,17.398,26.404,17.398,47.086c0,19.835-6.321,35.954-18.787,47.911c-1.191,1.144-2.424,2.231-3.693,3.267v7.418
				h71.463v-19.018H239.267z"/>
		</g>
	</g>
	<g>
		<path d="M409.444,470.298l-27.592,69.598c-4.92,12.42-11.834,18.63-20.738,18.63c-2.501,0-4.59-0.255-6.269-0.764v-8.611
			c2.071,0.705,3.964,1.056,5.683,1.056c4.842,0,8.475-2.89,10.896-8.67l4.803-11.366l-23.432-59.872h10.661l16.228,46.165
			c0.196,0.586,0.605,2.109,1.231,4.569h0.351c0.194-0.938,0.586-2.422,1.171-4.452l17.05-46.282H409.444z"/>
		<path d="M444.829,531.693c-8.866,0-15.945-2.802-21.236-8.406s-7.938-13.034-7.938-22.291c0-10.076,2.755-17.945,8.261-23.608
			c5.507-5.663,12.947-8.494,22.32-8.494c8.941,0,15.924,2.753,20.943,8.261c5.019,5.505,7.528,13.142,7.528,22.905
			c0,9.568-2.706,17.231-8.114,22.994C461.182,528.813,453.928,531.693,444.829,531.693z M445.532,476.979
			c-6.171,0-11.053,2.1-14.645,6.297c-3.595,4.198-5.391,9.987-5.391,17.369c0,7.108,1.816,12.713,5.449,16.813
			c3.63,4.101,8.494,6.151,14.586,6.151c6.211,0,10.984-2.01,14.324-6.034c3.338-4.022,5.008-9.743,5.008-17.164
			c0-7.5-1.67-13.28-5.008-17.34C456.516,479.009,451.743,476.979,445.532,476.979z"/>
		<path d="M538.563,530.287h-9.607v-9.489h-0.234c-3.984,7.264-10.156,10.896-18.512,10.896c-14.296,0-21.445-8.514-21.445-25.541
			v-35.854h9.551v34.331c0,12.653,4.841,18.98,14.529,18.98c4.686,0,8.543-1.729,11.57-5.184c3.025-3.457,4.541-7.977,4.541-13.563
			v-34.565h9.607V530.287z"/>
		<path d="M585.779,529.702c-2.264,1.249-5.254,1.875-8.963,1.875c-10.506,0-15.76-5.859-15.76-17.576V478.5h-10.311v-8.202h10.311
			v-14.646l9.609-3.104v17.749h15.113v8.202h-15.113v33.804c0,4.022,0.682,6.892,2.051,8.611c1.365,1.72,3.633,2.577,6.795,2.577
			c2.422,0,4.51-0.664,6.268-1.992V529.702z"/>
		<path d="M647.117,530.287h-9.609v-9.489h-0.234c-3.982,7.264-10.154,10.896-18.512,10.896c-14.295,0-21.441-8.514-21.441-25.541
			v-35.854h9.549v34.331c0,12.653,4.844,18.98,14.527,18.98c4.689,0,8.545-1.729,11.572-5.184c3.027-3.457,4.539-7.977,4.539-13.563
			v-34.565h9.609V530.287z"/>
		<path d="M676.35,521.617h-0.234v8.67h-9.609v-88.813h9.609v39.368h0.234c4.727-7.966,11.639-11.949,20.738-11.949
			c7.693,0,13.719,2.686,18.074,8.056c4.354,5.37,6.531,12.565,6.531,21.587c0,10.038-2.443,18.073-7.324,24.107
			c-4.883,6.032-11.561,9.05-20.033,9.05C686.406,531.693,680.412,528.336,676.35,521.617z M676.115,497.422v8.377
			c0,4.961,1.611,9.17,4.832,12.627c3.223,3.455,7.313,5.184,12.273,5.184c5.82,0,10.379-2.227,13.68-6.678
			c3.301-4.452,4.949-10.642,4.949-18.571c0-6.678-1.541-11.911-4.627-15.701c-3.086-3.788-7.264-5.681-12.537-5.681
			c-5.586,0-10.076,1.942-13.473,5.827C677.814,486.692,676.115,491.565,676.115,497.422z"/>
		<path d="M785.256,502.695H742.9c0.154,6.678,1.953,11.834,5.389,15.465c3.438,3.633,8.162,5.449,14.178,5.449
			c6.756,0,12.965-2.227,18.631-6.678v9.021c-5.273,3.829-12.244,5.741-20.914,5.741c-8.477,0-15.137-2.723-19.979-8.172
			c-4.844-5.449-7.266-13.113-7.266-22.994c0-9.333,2.646-16.938,7.939-22.817c5.291-5.877,11.863-8.816,19.713-8.816
			c7.852,0,13.924,2.539,18.221,7.614c4.295,5.078,6.443,12.127,6.443,21.15V502.695z M775.414,494.552
			c-0.041-5.546-1.377-9.86-4.014-12.946c-2.635-3.086-6.297-4.627-10.982-4.627c-4.531,0-8.379,1.62-11.543,4.861
			c-3.162,3.241-5.115,7.479-5.859,12.712H775.414z"/>
		<path d="M830.48,500.645h-31.984v-7.558h31.984V500.645z"/>
		<path d="M898.965,530.287h-9.609v-10.193h-0.234c-4.451,7.733-11.326,11.6-20.621,11.6c-7.537,0-13.561-2.685-18.07-8.055
			c-4.512-5.37-6.77-12.684-6.77-21.94c0-9.919,2.502-17.866,7.5-23.842c5-5.977,11.658-8.963,19.979-8.963
			c8.24,0,14.234,3.241,17.982,9.724h0.234v-37.143h9.609V530.287z M889.355,503.163v-8.845c0-4.842-1.6-8.942-4.803-12.303
			c-3.203-3.358-7.264-5.037-12.186-5.037c-5.859,0-10.467,2.146-13.824,6.443c-3.361,4.297-5.039,10.232-5.039,17.809
			c0,6.914,1.611,12.372,4.834,16.374c3.221,4.004,7.547,6.005,12.977,6.005c5.35,0,9.693-1.934,13.033-5.801
			C887.688,513.942,889.355,509.061,889.355,503.163z"/>
		<path d="M928.021,530.287h-9.609v-88.813h9.609V530.287z"/>
	</g>
</g>
</svg>
