<?xml version="1.0" encoding="utf-8"?>
<!-- Generator: Adobe Illustrator 15.1.0, SVG Export Plug-In . SVG Version: 6.00 Build 0)  -->
<!DOCTYPE svg PUBLIC "-//W3C//DTD SVG 1.1//EN" "http://www.w3.org/Graphics/SVG/1.1/DTD/svg11.dtd">
<svg version="1.1" id="Layer_2" xmlns="http://www.w3.org/2000/svg" xmlns:xlink="http://www.w3.org/1999/xlink" x="0px" y="0px"
	 width="1000px" height="1000px" viewBox="0 0 1000 1000" enable-background="new 0 0 1000 1000" xml:space="preserve">
<g>
	<g>
		<g>
			<linearGradient id="SVGID_1_" gradientUnits="userSpaceOnUse" x1="634.3057" y1="568.6006" x2="322.8368" y2="339.5797">
				<stop  offset="0" style="stop-color:#BE1E2D"/>
				<stop  offset="1" style="stop-color:#FD2725"/>
			</linearGradient>
			<path fill="url(#SVGID_1_)" d="M554.562,409.947c0-73.641-39.3-109.437-120.144-109.437h-77.971v224.806h77.971
				c36.409,0,65.866-10.553,87.554-31.358c10.794-10.352,19.004-22.616,24.397-36.46
				C551.803,443.545,554.562,427.548,554.562,409.947z M513.877,387.223l-49.846,86.342c-2.073,3.59-5.303,5.645-8.857,5.645
				c-3.563,0-6.791-2.055-8.864-5.645l-49.846-86.342c-2.072-3.589-2.239-7.419-0.464-10.5c1.78-3.08,5.176-4.844,9.321-4.844
				h99.697c4.146,0,7.546,1.764,9.322,4.85C516.121,379.809,515.948,383.634,513.877,387.223z"/>
			<linearGradient id="SVGID_2_" gradientUnits="userSpaceOnUse" x1="679.4502" y1="507.2041" x2="367.981" y2="278.183">
				<stop  offset="0" style="stop-color:#BE1E2D"/>
				<stop  offset="1" style="stop-color:#FD2725"/>
			</linearGradient>
			<path fill="url(#SVGID_2_)" d="M577.823,487.876V300.51h-53.216v8.762c3.547,2.469,6.891,5.122,10.005,7.971
				c22.731,20.797,34.257,51.988,34.257,92.707c0,39.054-12.446,70.791-36.991,94.333c-2.346,2.252-4.771,4.394-7.271,6.432v14.604
				H665.31v-37.442H577.823z"/>
		</g>
		<path fill="#FD2725" d="M500,193.987c29.563,0,58.232,5.786,85.211,17.196c26.066,11.025,49.481,26.813,69.594,46.926
			c20.113,20.112,35.9,43.527,46.927,69.595c11.409,26.978,17.195,55.646,17.195,85.21s-5.786,58.232-17.195,85.21
			c-11.026,26.067-26.813,49.482-46.927,69.595c-20.112,20.112-43.527,35.9-69.594,46.926
			c-26.979,11.41-55.647,17.196-85.211,17.196s-58.232-5.786-85.211-17.196c-26.066-11.025-49.481-26.813-69.594-46.926
			c-20.113-20.112-35.9-43.527-46.927-69.595c-11.41-26.978-17.195-55.646-17.195-85.21s5.785-58.232,17.195-85.21
			c11.026-26.067,26.813-49.482,46.927-69.595c20.112-20.112,43.527-35.9,69.594-46.926
			C441.768,199.773,470.437,193.987,500,193.987 M500,173.948c-131.978,0-238.966,106.988-238.966,238.966
			S368.022,651.88,500,651.88s238.966-106.988,238.966-238.966S631.978,173.948,500,173.948L500,173.948z"/>
	</g>
	<g>
		<path fill="#FD2725" d="M260.115,731.849l-28.654,72.282c-5.111,12.9-12.293,19.352-21.54,19.352
			c-2.599,0-4.769-0.266-6.511-0.791v-8.945c2.148,0.729,4.116,1.097,5.902,1.097c5.029,0,8.801-3.002,11.314-9.007l4.99-11.803
			l-24.336-62.185h11.074l16.852,47.95c0.203,0.604,0.628,2.188,1.277,4.74h0.365c0.203-0.973,0.611-2.513,1.219-4.622
			l17.706-48.068H260.115z"/>
		<path fill="#FD2725" d="M296.867,795.616c-9.207,0-16.561-2.912-22.057-8.733c-5.496-5.818-8.244-13.535-8.244-23.153
			c0-10.463,2.861-18.636,8.578-24.52c5.719-5.88,13.448-8.82,23.182-8.82c9.29,0,16.541,2.858,21.754,8.58
			c5.211,5.717,7.817,13.649,7.817,23.79c0,9.938-2.808,17.898-8.427,23.881C313.853,792.622,306.318,795.616,296.867,795.616z
			 M297.598,738.786c-6.41,0-11.479,2.183-15.211,6.542c-3.73,4.359-5.598,10.372-5.598,18.039c0,7.382,1.887,13.203,5.658,17.461
			c3.771,4.26,8.822,6.389,15.15,6.389c6.451,0,11.409-2.086,14.875-6.265c3.469-4.179,5.205-10.121,5.205-17.827
			c0-7.789-1.736-13.794-5.205-18.009C309.007,740.896,304.049,738.786,297.598,738.786z"/>
		<path fill="#FD2725" d="M394.221,794.151h-9.979v-9.853h-0.246c-4.136,7.543-10.545,11.317-19.224,11.317
			c-14.848,0-22.271-8.843-22.271-26.529v-37.238h9.917v35.655c0,13.143,5.029,19.713,15.091,19.713
			c4.865,0,8.874-1.795,12.018-5.383c3.145-3.59,4.716-8.283,4.716-14.084v-35.901h9.979V794.151z"/>
		<path fill="#FD2725" d="M443.26,793.547c-2.353,1.297-5.457,1.947-9.311,1.947c-10.909,0-16.365-6.086-16.365-18.257v-36.871
			h-10.709v-8.518h10.709v-15.21l9.979-3.226v18.436h15.696v8.518h-15.696v35.109c0,4.179,0.706,7.158,2.128,8.945
			c1.42,1.784,3.775,2.675,7.061,2.675c2.513,0,4.682-0.688,6.508-2.07V793.547z"/>
		<path fill="#FD2725" d="M506.968,794.151h-9.983v-9.853h-0.24c-4.139,7.543-10.551,11.317-19.227,11.317
			c-14.848,0-22.271-8.843-22.271-26.529v-37.238h9.918v35.655c0,13.143,5.029,19.713,15.088,19.713
			c4.871,0,8.873-1.795,12.018-5.383c3.144-3.59,4.715-8.283,4.715-14.084v-35.901h9.983V794.151z"/>
		<path fill="#FD2725" d="M537.327,785.15h-0.243v9.001h-9.979v-92.239h9.979v40.889h0.243c4.908-8.275,12.086-12.411,21.537-12.411
			c7.992,0,14.251,2.79,18.771,8.365c4.526,5.581,6.785,13.053,6.785,22.422c0,10.426-2.536,18.769-7.607,25.036
			c-5.072,6.266-12.007,9.403-20.808,9.403C547.773,795.616,541.545,792.127,537.327,785.15z M537.084,760.018v8.701
			c0,5.154,1.671,9.525,5.019,13.115c3.347,3.588,7.596,5.383,12.747,5.383c6.041,0,10.779-2.313,14.209-6.935
			c3.426-4.622,5.143-11.052,5.143-19.286c0-6.938-1.606-12.372-4.81-16.31c-3.205-3.933-7.545-5.9-13.021-5.9
			c-5.801,0-10.463,2.016-13.993,6.053C538.849,748.876,537.084,753.937,537.084,760.018z"/>
		<path fill="#FD2725" d="M650.438,765.496h-43.992c0.158,6.936,2.03,12.293,5.595,16.063c3.573,3.771,8.481,5.657,14.727,5.657
			c7.02,0,13.468-2.313,19.352-6.935v9.368c-5.477,3.976-12.72,5.966-21.724,5.966c-8.804,0-15.719-2.83-20.751-8.49
			c-5.026-5.657-7.542-13.618-7.542-23.88c0-9.694,2.75-17.593,8.243-23.699c5.496-6.104,12.323-9.157,20.477-9.157
			c8.15,0,14.458,2.638,18.922,7.907c4.464,5.275,6.694,12.595,6.694,21.97V765.496z M640.216,757.038
			c-0.042-5.759-1.428-10.24-4.17-13.446c-2.739-3.205-6.539-4.806-11.407-4.806c-4.707,0-8.699,1.683-11.984,5.049
			c-3.287,3.367-5.317,7.769-6.089,13.203H640.216z"/>
		<path fill="#FD2725" d="M697.41,763.367h-33.224v-7.851h33.224V763.367z"/>
		<path fill="#FD2725" d="M768.537,794.151h-9.979v-10.585h-0.24c-4.628,8.032-11.767,12.05-21.421,12.05
			c-7.828,0-14.088-2.79-18.772-8.368c-4.682-5.578-7.027-13.172-7.027-22.786c0-10.305,2.595-18.558,7.791-24.763
			c5.193-6.208,12.105-9.31,20.748-9.31c8.555,0,14.782,3.364,18.682,10.099h0.24v-38.576h9.979V794.151z M758.558,765.982v-9.188
			c0-5.027-1.663-9.287-4.987-12.775c-3.33-3.489-7.549-5.233-12.657-5.233c-6.086,0-10.872,2.23-14.361,6.691
			c-3.485,4.464-5.232,10.63-5.232,18.498c0,7.181,1.676,12.849,5.023,17.005c3.345,4.161,7.837,6.236,13.474,6.236
			c5.556,0,10.067-2.008,13.539-6.024C756.824,777.178,758.558,772.105,758.558,765.982z"/>
		<path fill="#FD2725" d="M798.719,794.151h-9.979v-92.239h9.979V794.151z"/>
	</g>
</g>
</svg>
